<svg xmlns="http://www.w3.org/2000/svg" viewBox="0 0 407.02 391.3"><defs><linearGradient id="a" x1="217" gradientUnits="userSpaceOnUse" y1="509.36" gradientTransform="translate(-1152.9 -2717.3) scale(6.432)" x2="216.5" y2="530.61"><stop stop-color="#00484d" offset="0"/><stop stop-color="#007880" offset="1"/></linearGradient><linearGradient id="b" x1="201.35" gradientUnits="userSpaceOnUse" y1="500.29" gradientTransform="translate(-1152.9 -2717.3) scale(6.432)" x2="243.95" y2="502.18"><stop stop-color="#007880" offset="0"/><stop stop-color="#007880" stop-opacity="0" offset="1"/></linearGradient><filter id="c" color-interpolation-filters="sRGB"><feGaussianBlur stdDeviation=".276"/></filter></defs><path fill="url(#a)" d="M107.83 549.22h332.63c6.3 0 11.37 5.071 11.37 11.37l-25.728 179.87c0 6.3-5.071 11.37-11.37 11.37h-281.17c-6.3 0-11.37-5.071-11.37-11.37L96.463 560.59c0-6.3 5.071-11.37 11.37-11.37z" transform="translate(-66.914 -360.53)"/><path fill="#007880" d="M1.005 184.49v31.356c0 6.3 4.957 11.256 11.256 11.256h383.31c6.3 0 11.457-4.957 11.457-11.256V184.49H1.008z"/><path d="M38.596 120.83.004 183.944h406.02l-38.592-63.114H38.602zm15.075 10.251h298.68l25.929 42.612H27.74l25.929-42.612z" fill="#00a7b3"/><path d="m25.583 174.14 25.939-44.055 304.68.412 24.704 43.23-355.32.412z" fill="#006066"/><path d="m92.497 534.67 25.939-44.055 304.68.412 24.704 43.23-355.32.412z" fill="url(#b)" transform="translate(-66.914 -360.53)"/><path d="m51.456 130.08-25.929 44.019h26.532V130.08h-.603zM355.766 130.08l25.929 44.019h-26.532V130.08h.603zM57.316 244.65v53.466h17.085V244.65H57.316zm34.572 0v53.466h17.085V244.65H91.888zm34.773 0v53.466h17.085V244.65h-17.085zm34.773 0v53.466h16.884V244.65h-16.884zm34.572 0v53.466h17.085V244.65h-17.085zm34.773 0v53.466h16.884V244.65h-16.884zm34.572 0v53.466h17.085V244.65h-17.085zm34.773 0v53.466h17.085V244.65h-17.085zm34.572 0v53.466h17.085V244.65h-17.085zm-277.38 77.184 4.623 53.466h12.462v-53.466H57.316zm34.572 0V375.3h17.085v-53.466H91.888zm34.773 0V375.3h17.085v-53.466h-17.085zm34.773 0V375.3h16.884v-53.466h-16.884zm34.572 0V375.3h17.085v-53.466h-17.085zm34.773 0V375.3h16.884v-53.466h-16.884zm34.572 0V375.3h17.085v-53.466h-17.085zm34.773 0V375.3h17.085v-53.466h-17.085zm34.572 0V375.3h12.462l4.623-53.466h-17.085z" fill="#00484d"/><path d="M57.226 245.22v6.834h17.085v-6.834H57.226zm34.572 0v6.834h17.085v-6.834H91.798zm34.773 0v6.834h17.085v-6.834h-17.085zm34.773 0v6.834h16.884v-6.834h-16.884zm34.572 0v6.834h17.085v-6.834h-17.085zm34.773 0v6.834h16.884v-6.834h-16.884zm34.572 0v6.834h17.085v-6.834h-17.085zm34.773 0v6.834h17.085v-6.834h-17.085zm34.572 0v6.834h17.085v-6.834h-17.085zm-277.38 77.184.603 6.834H74.31v-6.834H57.226zm34.572 0v6.834h17.085v-6.834H91.798zm34.773 0v6.834h17.085v-6.834h-17.085zm34.773 0v6.834h16.884v-6.834h-16.884zm34.572 0v6.834h17.085v-6.834h-17.085zm34.773 0v6.834h16.884v-6.834h-16.884zm34.572 0v6.834h17.085v-6.834h-17.085zm34.773 0v6.834h17.085v-6.834h-17.085zm34.572 0v6.834h16.482l.603-6.834h-17.085z" fill="#2e3436"/><path d="M58.506 291.88v9.246h17.085v-9.246H58.506zm34.572 0v9.246h17.085v-9.246H93.078zm34.773 0v9.246h17.085v-9.246h-17.085zm34.773 0v9.246h16.884v-9.246h-16.884zm34.572 0v9.246h17.085v-9.246h-17.085zm34.773 0v9.246h16.884v-9.246h-16.884zm34.572 0v9.246h17.085v-9.246h-17.085zm34.773 0v9.246h17.085v-9.246h-17.085zm34.572 0v9.246h17.085v-9.246h-17.085zm-277.38 32.964 4.623 53.466h12.462v-9.246H63.129l-3.819-44.22h-.804zm293.66 0-3.819 44.22h-12.462v9.246h12.462l4.623-53.466h-.804zm-259.09 44.22v9.246h17.085v-9.246H93.076zm34.773 0v9.246h17.085v-9.246h-17.085zm34.773 0v9.246h16.884v-9.246h-16.884zm34.572 0v9.246h17.085v-9.246h-17.085zm34.773 0v9.246h16.884v-9.246h-16.884zm34.572 0v9.246h17.085v-9.246h-17.085zm34.773 0v9.246h17.085v-9.246h-17.085z" fill="#00c4cc"/><path opacity=".8" d="m2.211 183.06 402.8 1.608" stroke="#fff" stroke-width="2.279" fill="#fff"/><path opacity=".8" d="m51.966 131.51 17.873-.619" stroke="#fff" stroke-width="2.094" fill="#fff"/><path opacity=".8" fill="#2e3436" d="M218.694 209.802c0 5.995-4.86 10.854-10.854 10.854s-10.854-4.86-10.854-10.854 4.86-10.854 10.854-10.854 10.854 4.86 10.854 10.854z"/><path style="block-progression:tb;color:#000;text-transform:none;text-indent:0" fill="#00484d" d="m370.31 490.61-3.368 43.375 10.687.637 3.333-44.088-10.653.076zm13.654 52.906-109.34 21.651 2.613 11.055 114.33-24.93 3.853-4.617 1.706-3.854-13.163.695z" transform="translate(-66.914 -360.53)"/><path style="block-progression:tb;color:#000;text-transform:none;text-indent:0" d="M345.3 362.57a7.074 7.074 0 0 0-4.824 3.015l-90.249 113.97h17.889l79.194-100.3 46.23 36.984-124.42 154.77s4.02 8.844 14.07 3.216l125.62-154.77c2.408-2.907 1.821-7.795-1.206-10.05l-57.08-45.02a7.07 7.07 0 0 0-5.226-1.809z" transform="translate(-66.914 -360.53)"/><path style="block-progression:tb;color:#000;text-transform:none;text-indent:0" d="m233.44 479.19-.625.188 9.563 7.468-19.656 24.406h.562l19.656-24.469-9.5-7.594zm-.69 2.06a1.04 1.04 0 0 0-.594.406l-12.312 15.375h.594l12.438-15.562a1.01 1.01 0 0 1 .187-.219 1.16 1.16 0 0 0-.25 0 .651.651 0 0 0-.062 0z" transform="translate(-1219.814 -3077.83) scale(6.432)" filter="url(#c)" fill="#fff"/><path fill="#007880" d="m315.616 173.8 1.137 9.665 12.791-.569-4.548-9.665-9.38.569z"/><path style="block-progression:tb;color:#000;text-transform:none;text-indent:0" fill="#007880" d="m363.71 481.28 6.883 9.33 10.653-.076-6.016-9.717-11.52.463z" transform="translate(-66.914 -360.53)"/></svg>