<svg xmlns="http://www.w3.org/2000/svg" viewBox="0 0 131.68 43.983"><path d="M118.45 41.46c-5.056-2.692-7.38-3.207-4.441-.984 3.004 2.272.262 1.797-5.894-1.021-3.067-1.405-6.724-3.992-8.126-5.75-3.671-4.604-5.82-6.749-6.29-6.279-.692.691 1.728 4.546 5.584 8.898 3.211 3.624 3.33 3.924.952 2.411-3.836-2.441-4.525-2.144-1.785.773 1.292 1.375 1.847 2.5 1.233 2.5-.613 0-1.423-.498-1.799-1.107-.484-.784-.912-.738-1.465.157-.565.914-2.33-.059-6.375-3.514-5.35-4.57-6.738-6.536-4.617-6.536.537 0 1.669 1.055 2.514 2.346 1.367 2.086 6.509 5.352 6.509 4.133 0-.262-1.843-2.376-4.095-4.697-3.948-4.068-3.818-6.823.153-3.23 2.77 2.507 2.415.241-.373-2.378-2.855-2.682-9.8-3.223-7.618-.594 1.172 1.412.89 1.505-2.628.872-5.434-.979-12.478-3.341-15.276-5.124-3.619-2.305-1.814-2.697 2.49-.54 4.651 2.33 9.347 3.552 9.347 2.432 0-.45-1.687-1.412-3.75-2.138-4.257-1.497-10.557-5.109-9.957-5.709.22-.218 2.603.578 5.298 1.77 8.68 3.84 20.395 6.26 18.945 3.914-.32-.518-2.696-1.259-5.28-1.646-2.583-.388-7.41-1.988-10.727-3.557-3.316-1.57-6.544-2.853-7.172-2.854-.63 0-1.402-.675-1.719-1.5-.8-2.085.231-1.878 4.862.974 2.2 1.355 4.9 2.462 6 2.461 1.911-.002 1.9-.085-.25-1.879-2.906-2.424-2.927-3.643-.028-1.613 2.485 1.74 5.23 2.098 4.278.557-.34-.55.34-1 1.512-1 1.966 0 2.005-.125.506-1.625-1.152-1.152-2.725-1.477-5.406-1.117-2.08.279-4.564.068-5.522-.467-2.5-1.4-3.306-.048-1.017 1.705 1.751 1.342 1.625 1.376-1.385.37-1.862-.62-3.11-1.627-2.853-2.297.251-.656-.309-2.208-1.245-3.449-2.824-3.745-7.186-1.875-12.546 5.38-4.672 6.325-9.764 9.27-16.29 9.424-2.486.058-4.422 1.229-8.281 5.008-4.429 4.336-5.704 5.015-10.555 5.621-3.035.38-6.139 1.31-6.897 2.068s-1.713 1.379-2.121 1.379c-.409 0-1.569.747-2.578 1.66-3.083 2.79-2.995.893.12-2.596 2.35-2.633 4.272-3.563 9.717-4.705 5.864-1.229 7.38-2.031 11.141-5.902 2.395-2.464 4.711-4.26 5.147-3.99.437.27 3.44-.199 6.673-1.04 6.295-1.64 10.484-4.852 12.419-9.522C48.81 4.721 56.313.008 60.073.008c1.32 0 4.145 1.602 6.371 3.614 3.75 3.388 4.289 3.57 8.61 2.922 3.193-.479 4.405-.36 3.944.386-.974 1.576.278 3.081 2.01 2.417 1.097-.421 1.208-.916.419-1.867-1.648-1.986.886-3.038 2.773-1.151.856.857 2.276 3.693 3.154 6.302 1.418 4.217 2.071 4.901 5.867 6.151 2.35.774 5.05 2.519 6 3.879 4.42 6.32 6.491 8.167 10.941 9.755 2.634.94 5.463 2.141 6.288 2.67.825.528 5.1 2.776 9.5 4.995 5.742 2.895 7.021 3.842 4.533 3.353-1.907-.374-4.25-1.169-5.205-1.766-.955-.596-2.082-.74-2.504-.318-.421.421-.104 1.185.705 1.697 2.983 1.886-.672.733-5.03-1.587zm-10-4.452c-.825-.533-1.95-.97-2.5-.97s-.325.437.5.97 1.95.97 2.5.97.325-.437-.5-.97zm7 0c0-.55-.477-1-1.059-1s-.78.45-.441 1 .816 1 1.059 1 .441-.45.441-1zm-22-15c0-.55-.413-1-.918-1-.505 0-1.743-.262-2.75-.582-1.676-.532-1.667-.447.11 1 2.222 1.811 3.558 2.03 3.558.582zm-6.5-3c-.34-.55-1.379-.969-2.309-.93-1.379.057-1.321.23.309.93 2.676 1.15 2.71 1.15 2 0zm-1.5 19.868c0-.387-.275-1.421-.611-2.297-.818-2.13 1.768-1.15 3.257 1.234.907 1.453.77 1.767-.771 1.767-1.031 0-1.875-.317-1.875-.704zM55.896 30.92c-.858-1.388 1.044-3.346 2.423-2.494 1.148.71.413 3.581-.917 3.581-.459 0-1.136-.489-1.506-1.087zm3.995-3.381c-2.486-1.88-.713-1.902 2.559-.032 1.602.916 1.94 1.442.941 1.465-.857.02-2.432-.625-3.5-1.433zm3.309-1.694c-1.513-.553-2.75-1.417-2.75-1.921 0-1.405 1.253-1.065 4 1.083 2.798 2.189 2.675 2.271-1.25.838z"/></svg>