<svg xmlns="http://www.w3.org/2000/svg" viewBox="0 0 627.92 225" height="225mm" width="2373.242"><path d="m-240.428 134.855-.666-1.345-1.127.665c-.62.366-2.634.945-4.474 1.288-2.884.537-5.397.618-18.163.587-13.496-.033-19.554-.207-23.19-.668a111.4 111.4 0 0 0-3.88-.371c-1.41-.113-3.12-.35-3.798-.527-.68-.177-2.585-.42-4.234-.541-3.57-.262-4.213-.77-4.225-3.341-.011-2.236.577-2.658 4.137-2.964 2.534-.219 2.91-.337 2.91-.92 0-.446.264-.682.794-.709.437-.022 2.124-.095 3.75-.162 1.625-.068 3.04-.208 3.145-.313.504-.504-.716-.675-5.838-.816-5.123-.14-6.596-.39-5.973-1.014.132-.132 1.153-.209 2.27-.171 1.116.038 4.251-.104 6.968-.314 2.716-.21 8.907-.449 13.758-.53 4.85-.08 12.945-.228 17.987-.329 8.818-.176 13.243.109 14.098.907.536.5 1.605.361 1.605-.208 0-.287-.39-1.359-.866-2.382-1.511-3.246-3.366-10.635-3.367-13.413v-1.323h-2.517c-3.287 0-5.214-.58-5.638-1.696-.213-.56-.197-1.016.046-1.308.205-.247.459-1.3.565-2.338l.192-1.89-.67.824c-.368.453-.963 1.405-1.322 2.116-.898 1.779-3.47 4.066-6.002 5.339-2.368 1.19-7.233 1.942-13.935 2.154-8.406.266-10.845-.105-13.468-2.052-2.195-1.63-2.414-1.885-2.942-3.442-.4-1.179-.535-1.197-3.89-.513-1.945.396-2.277.37-3.793-.301-2.086-.922-2.464-1.82-2.154-5.108.178-1.883.473-2.824 1.246-3.969.557-.825 1.013-1.605 1.013-1.733 0-.128.327-.952.727-1.83.611-1.342 1.03-1.73 2.614-2.431 1.84-.814 2.572-1.426 2.179-1.82-.108-.107-.452.063-.766.377-.783.783-1.438.716-2.089-.213-.453-.647-.549-2.034-.549-7.938 0-6.683.047-7.2.706-7.859.388-.388 1.023-.705 1.41-.705.585 0 .706-.235.706-1.364 0-.829.277-1.715.706-2.26.408-.519.706-1.431.706-2.164 0-.797.261-1.53.705-1.973.549-.549.706-1.176.706-2.822 0-1.647.156-2.274.705-2.823.388-.388.706-1.001.706-1.363 0-.362.317-1.062.705-1.555.388-.493.706-1.15.706-1.459 0-.873 1.31-1.973 2.351-1.973.66 0 1.579-.603 3.087-2.028 1.18-1.116 2.688-2.425 3.35-2.91.66-.486 2.113-1.597 3.226-2.47 4.37-3.427 6.17-4.778 6.853-5.148.391-.212 1.347-.755 2.123-1.206a91.712 91.712 0 0 1 2.999-1.65 59.978 59.978 0 0 0 2.646-1.469c.582-.352 1.481-.746 2-.875.517-.129 2.535-1.427 4.485-2.885 4.073-3.046 4.345-3.17 8.453-3.89 1.68-.295 4.244-.77 5.7-1.054 3.36-.66 9.53-1.496 16.932-2.297 1.844-.199 3.828-.434 4.41-.522 1.957-.295 15.125-1.557 19.932-1.911 6.841-.503 17.813-1.37 20.285-1.602 1.164-.11 3.704-.35 5.644-.536l5.645-.536c8.335-.788 20.344-1.49 32.808-1.92 5.82-.2 11.377-.438 12.347-.529.97-.09 3.907-.253 6.527-.361 6.428-.266 15.729-.821 21.52-1.285 2.618-.21 6.466-.43 8.55-.489 2.084-.059 4.544-.197 5.468-.307 2.046-.244 8.48-.498 19.495-.77 4.56-.113 8.528-.265 8.82-.337.29-.072 3.783-.227 7.76-.345 8.021-.237 23.186-.784 29.987-1.082 2.425-.106 6.95-.414 10.054-.684C-4.932 8.48-.25 8.246 2.37 8.23c2.62-.016 7.7-.182 11.289-.368 3.59-.186 12.717-.572 20.284-.858 17.402-.658 22.883-.878 26.635-1.07 1.65-.084 5.777-.242 9.172-.351l11.466-.37c2.91-.095 6.164-.25 7.232-.346 3.672-.33 13.946-.865 20.108-1.048l12.17-.36c6.226-.182 11.635-.423 15.876-.707 1.358-.091 5.01-.248 8.114-.348 8.835-.284 13.763-.523 18.344-.887 4.407-.35 6.303-.452 19.756-1.062 4.462-.202 9.145-.428 10.407-.501 1.26-.073 4.753-.247 7.76-.386 5.743-.264 7.339-.588 5.464-1.108-1.405-.39-21.832-.248-30.687.214-3.88.202-9.675.448-12.876.547-4.845.15-16.312.728-21.167 1.069-.68.047-4.884.198-9.343.335-4.46.137-8.19.299-8.29.36-.1.06-4.072.21-8.825.334-4.754.123-9.675.29-10.936.371-1.262.082-5.39.252-9.173.378-3.783.127-7 .304-7.147.393-.147.09-2.132.152-4.41.14-2.278-.012-5.411.128-6.964.312-1.552.183-4.886.425-7.408.537-2.522.111-5.697.27-7.055.353-1.359.083-5.486.24-9.173.35-3.686.11-8.607.279-10.936.374-2.328.096-6.852.265-10.054.376-3.201.11-6.694.25-7.761.308-1.067.06-6.306.282-11.642.496C7.266 5.92 1.71 6.173.254 6.27c-1.455.097-5.345.265-8.643.374-3.298.11-9.41.348-13.582.532-4.172.183-11.157.419-15.522.523-4.366.105-10.398.338-13.406.52-3.007.18-8.802.42-12.876.534-9.952.276-15.411.49-18.168.709-1.261.1-7.294.494-13.406.874-6.112.38-12.223.787-13.582.902-1.358.115-4.533.275-7.055.355-9.188.29-10.727.378-34.043 1.944-2.814.189-6.782.495-8.82.681-2.037.186-5.496.428-7.686.538-2.19.11-4.174.262-4.41.337-.725.23-4.592.546-11.116.904-3.435.19-6.72.408-7.303.487-.582.079-2.646.247-4.586.373-1.94.127-4.322.368-5.292.536-.97.168-3.517.393-5.659.501-2.142.108-4.719.352-5.725.543-1.006.19-3.619.518-5.806.727-3.954.377-12.056 1.426-16.572 2.145-2.637.42-3.809.211-3.809-.678 0-.329-.497-.816-1.11-1.087-.926-.41-1.233-.414-1.852-.023-1.3.82-2.463 1.335-4.087 1.81-.87.255-2.298.956-3.175 1.559-1.597 1.098-4.138 2.131-4.457 1.813-.41-.41.385-2.097 1.326-2.817.567-.434 1.7-1.402 2.518-2.152.819-.75 1.886-1.621 2.37-1.936 3.07-1.993 15.687-13.95 16.71-15.836.186-.34.748-1.048 1.25-1.57.503-.524 1.787-1.935 2.855-3.136 3.977-4.478 16.699-16.816 19.579-18.99.776-.585 1.762-1.387 2.192-1.782.43-.395.92-.718 1.09-.718.169 0 1.197-.637 2.285-1.417 1.708-1.222 9.264-4.933 10.046-4.933.15 0 .826-.297 1.502-.659 2.76-1.48 10.89-3.65 28.04-7.489 1.747-.39 4.525-1.024 6.174-1.408 1.65-.384 4.507-.856 6.35-1.05 1.843-.193 3.748-.426 4.233-.518.485-.092 1.517-.26 2.293-.372.776-.113 2.84-.5 4.586-.858 1.747-.359 4.763-.89 6.703-1.179 1.94-.29 5.354-.841 7.585-1.227a157.79 157.79 0 0 1 7.761-1.112c2.037-.226 4.419-.55 5.292-.72.873-.17 2.937-.4 4.586-.512 1.65-.112 3.475-.285 4.057-.385.582-.1 1.614-.24 2.293-.313.679-.071 2.028-.217 2.998-.324.97-.107 2.955-.285 4.41-.396 1.455-.11 3.281-.276 4.057-.366 14.76-1.725 18.04-1.922 34.572-2.085 16.736-.166 20.866.077 23.526 1.384 2.629 1.29 5.039 3.547 5.566 5.212.23.727.963 1.973 1.627 2.768.664.795 1.208 1.594 1.208 1.776 0 .749-1.097.653-2.875-.251-1.827-.93-11.742-3.757-12.06-3.439-.086.086-1.166-.114-2.4-.446-3.964-1.066-28.428-1.042-39.145.038-.892.09-4.623.322-8.29.515-3.667.193-7.62.442-8.784.554-1.165.111-3.149.256-4.41.321-3.098.16-6.441.507-8.996.932-1.164.193-2.99.405-4.057.47-3.653.223-16.754 1.985-21.167 2.848-9.838 1.922-12.27 2.377-14.443 2.704-1.25.189-2.52.473-2.822.63-.303.16-1.264.396-2.137.528-.873.131-3.493.697-5.821 1.257-2.329.56-4.8 1.084-5.49 1.165-.692.081-1.594.328-2.006.548-.411.22-1.161.4-1.666.4-.88 0-5.103.926-8.83 1.936-.97.263-2.207.574-2.748.693-.542.118-.907.34-.812.495.173.279 8.861-1.467 12.556-2.522 3.886-1.111 9.543-2.365 10.666-2.365.634 0 2.422-.395 3.974-.877s3.22-.879 3.704-.882c.485-.002 2.55-.317 4.587-.7 2.037-.381 6.72-1.164 10.406-1.74 3.687-.575 7.259-1.135 7.938-1.244 5.828-.934 13.047-1.72 21.343-2.321 2.716-.198 6.368-.516 8.114-.708 1.746-.192 5.08-.435 7.408-.539 2.329-.103 5.186-.342 6.35-.53 2.868-.461 7.88-.642 23.284-.841 13.686-.177 20.734.266 26.66 1.677 6.556 1.56 11.826 5.083 16.146 10.792 1.113 1.472 2.47 3.152 3.016 3.734.545.582 1.408 1.772 1.916 2.645a61.079 61.079 0 0 0 1.663 2.688c.407.605 1.331 2.271 2.055 3.704 1.318 2.61 4.225 6.964 5.363 8.032.718.675.484.153-.695-1.546-.404-.582-2.145-3.915-3.87-7.408-1.723-3.493-3.51-6.8-3.97-7.349-.46-.548-.836-1.13-.836-1.295 0-.163-.768-1.54-1.707-3.06-3.594-5.816-5.193-10.049-4.308-11.404.19-.291.85-.53 1.468-.53 1.04 0 1.168-.134 1.712-1.804.883-2.71 3.21-5.247 6.187-6.748 4.4-2.219 9.821-3.89 14.64-4.514 7.827-1.014 21.684-2.361 23.259-2.262 3.334.21 4.434-.468 1.409-.87-3.559-.472-40.263-.227-50.42.337-1.844.102-4.94.268-6.88.369-6.32.327-11.97.76-16.404 1.26-1.844.209-4.78.375-6.527.37-2.284-.006-3.768.193-5.291.71-1.668.566-3.223.741-7.327.826-2.866.06-6.041.267-7.056.46-1.015.193-3.353.442-5.196.553-1.844.111-3.907.346-4.587.522-.679.177-2.564.418-4.19.536-1.625.118-3.07.286-3.211.373-.141.087-1.272.249-2.513.358-1.241.11-2.642.284-3.114.387-.77.168-4.085.596-7.962 1.028-.776.087-1.65.214-1.94.283-.291.07-1.323.243-2.293.385-.97.142-2.955.487-4.41.767-3.926.756-3.903.752-5.997 1.014-3.346.42-15.434 2.93-21.872 4.543-7.022 1.758-11.381 2.555-11.975 2.188-1.088-.672 1.804-1.936 7.288-3.184 1.123-.255 3.628-.87 5.569-1.367 6.397-1.638 15.114-3.503 18.52-3.964 1.844-.249 4.78-.709 6.527-1.022 1.746-.313 3.969-.707 4.939-.874.97-.168 2.002-.387 2.293-.488.29-.1 1.243-.27 2.116-.378 3.498-.428 4.79-.657 5.354-.95.324-.168 1.515-.391 2.645-.496 1.13-.106 2.536-.345 3.122-.532 1.03-.33 2.11-.458 7.4-.884 1.358-.109 3.82-.418 5.468-.687 1.65-.268 4.014-.583 5.255-.698 1.242-.115 2.368-.278 2.504-.362.136-.084 2.533-.4 5.328-.705a455.94 455.94 0 0 0 7.904-.924c1.552-.204 4.965-.428 7.584-.498 5.507-.146 9.069-.357 14.378-.85 9.977-.929 17.617-1.156 39.068-1.164 25.438-.01 33.417.323 39.158 1.635 1.358.31 2.946.564 3.528.564 1.396 0 4.931.801 8.643 1.958 1.65.514 3.555 1.056 4.234 1.205 3.547.776 9.633 3.926 13.846 7.168 2.43 1.87 7.11 6.46 9.323 9.142 4.017 4.871 6.936 8.224 7.402 8.503.26.155.473.437.473.627s.768 1.335 1.707 2.544c1.7 2.19 2.703 3.796 2.582 4.131-.113.315 1.766 2.128 2.72 2.626.51.266 1.216.976 1.568 1.578.599 1.025.6 1.108.034 1.325-.425.164-.978-.18-1.873-1.162-4.803-5.271-6.586-7.36-8.483-9.937-2.721-3.696-7.286-8.31-10.22-10.332a2758.04 2758.04 0 0 0-4.066-2.795c-2.908-1.994-5.05-3.006-9.545-4.507-3.95-1.32-7.175-2.285-7.585-2.271-.097.003-.415-.12-.706-.272-.29-.153-1.64-.379-2.998-.502-4.868-.442-5.015-.494-6.44-2.269-.727-.904-1.418-1.724-1.537-1.82-.118-.098-.476-.687-.796-1.31-.567-1.107-.87-1.256-4.015-1.972-1.387-.315-1.225.405.262 1.164 1.577.804 2.516 1.5 3.776 2.796 1.935 1.992.426 2.377-11.888 3.037-1.843.1-4.621.342-6.173.54-1.553.198-3.616.418-4.586.49-3.815.278-6.826.637-9.525 1.133-1.553.285-4.172.74-5.821 1.012-1.65.27-4.824.882-7.056 1.358-6.067 1.294-8.25 2.183-10.164 4.14-.945.967-1.12 1.407-1.097 2.76.03 1.841.75 3.959 2.268 6.671.989 1.768 5.076 8.096 6.756 10.46.413.582 1.999 2.947 3.523 5.257 1.524 2.31 3.287 4.97 3.918 5.914 1.799 2.69 3.078 3.26 8.056 3.589 3.036.2 14.325-1.49 15.121-2.264.207-.2-.113-.326-.835-.326-.643 0-2.676-.357-4.517-.793-2.66-.631-3.475-.975-3.966-1.676-.903-1.29-3.188-6.783-3.188-7.665 0-1.524-.644-2.566-1.585-2.566-.744 0-.87.137-.736.794.214 1.05.497 3.677.77 7.155.173 2.206.113 2.924-.272 3.243-1.232 1.023-2.29-1.743-2.592-6.782-.32-5.319-.371-5.7-1.626-12.096-.766-3.906-2.64-4.723-11.333-4.938-4.876-.12-6.262-.257-6.262-.62 0-.573.556-.754 3.704-1.205 7.122-1.02 14.108.542 15.696 3.507.197.37.542 1.91.767 3.425.224 1.515.54 2.904.701 3.087.432.49 2.34.542 2.698.073.17-.223.523-1.596.784-3.051.49-2.728 1.152-3.752 2.614-4.046.401-.08 1.84-.333 3.199-.56 1.358-.227 3.488-.712 4.733-1.078 4.788-1.408 6.613-.49 7.227 3.63.252 1.691 1.331 3.465 2.107 3.465.239 0 1.26.411 2.267.914 1.66.827 1.834 1.024 1.834 2.089 0 1.23-.323 1.436-3.264 2.087-1.223.271-1.217.574.034 1.836.553.556 1.096 1.271 1.208 1.588.249.702-.646 2.07-1.353 2.07-.282 0-1.01.476-1.62 1.058-.609.582-1.125 1.058-1.146 1.058a37.8 37.8 0 0 1-1.182-.328c-1.359-.39-1.436-.077-.315 1.271 1.246 1.497 1.584 2.328 1.268 3.114-.64 1.59-.483 1.7 2.048 1.448 1.31-.13 3.254-.383 4.322-.562 3.673-.615 7.587-1.159 8.995-1.25.776-.05 2.76-.28 4.41-.51 1.65-.23 4.507-.557 6.35-.724a173.02 173.02 0 0 0 6.307-.707c3.524-.48 5.335-.245 5.335.69 0 .379-.403.806-.97 1.029-1.221.48-5.703 1.375-8.026 1.603-2.694.265-5.142.742-9.368 1.829-1.077.276-2.427.567-2.998.644-1.832.25-5.944 1.31-7.037 1.816-1.368.633-4.106 1.232-4.506.985-.17-.106-.614.133-.985.531-.412.443-.973.666-1.446.575-.846-.163-1.812.436-1.504.934.106.173.78.238 1.495.145 5.081-.66 6.48-.74 21.41-1.237 6.015-.2 11.412-.434 11.994-.521.583-.087 3.123-.25 5.645-.361 6.14-.272 15.54-.845 17.286-1.053.776-.093 4.904-.256 9.172-.362 13.985-.35 19.718-.53 22.225-.701 1.358-.093 7.312-.265 13.23-.382a985.684 985.684 0 0 0 32.808-1.19c7.55-.4 12.369-.636 19.04-.928 2.808-.123 5.366-.274 5.685-.336.983-.19 21.776-.682 26.075-.618 2.231.033 5.168.155 6.526.27 1.358.116 3.422.29 4.586.388 4.06.338 8.352 1.54 11.995 3.36 4.145 2.07 5.216 3.142 7.238 7.244 1.903 3.858 2.56 7.514 2.403 13.375-.112 4.166-.157 4.39-1.186 5.858-.59.84-1.342 2.104-1.674 2.81-.332.707-1.014 1.66-1.515 2.117-.502.458-1.27 1.17-1.708 1.584-.438.413-1.18.866-1.648 1.007-.469.14-1.366.55-1.994.91-.723.414-2.212.735-4.057.875-4.438.336-9.433-.889-16.014-3.929-1.431-.66-2.663-1.202-2.737-1.202-.074 0-1.701-.738-3.615-1.64-5.809-2.737-18.7-6.716-19.422-5.994-.102.101.416.436 1.151.743 1.864.779 9.22 5.66 10.852 7.202 1.318 1.245 2.352 2.806 2.352 3.552 0 .204-.698.37-1.551.37-1.474 0-1.658-.12-3.702-2.425-1.182-1.334-3.223-3.167-4.534-4.075a507.647 507.647 0 0 1-4.324-3.028c-1.067-.758-2.373-1.477-2.9-1.596-.53-.119-1.42-.644-1.98-1.167-.851-.796-1.06-1.34-1.272-3.329-.283-2.642-.742-3.32-2.414-3.573-4.007-.606-31.607-.88-38.033-.38-3.455.27-4.956.835-2.437.918 3.04.1 5.844.294 9.437.654 1.988.2 5.243.524 7.232.72 1.988.197 4.886.595 6.438.884 1.552.288 4.013.685 5.468.88 1.455.195 3.28.443 4.057.55 2.43.335 5.41 1.165 6.885 1.918 1.236.63 1.37.813 1.047 1.418-.447.834-1.329.871-4.511.19a80.941 80.941 0 0 0-4.127-.768 54.75 54.75 0 0 1-1.94-.309c-.245-.065-3.128-.557-4.41-.752a19.799 19.799 0 0 1-1.587-.3c-.291-.078-1.323-.235-2.293-.349-.97-.114-2.558-.36-3.528-.545-3.05-.585-12.436-1.364-19.403-1.61-3.686-.132-6.802-.296-6.923-.366-.122-.07-2.402.037-5.067.238l-4.847.365-.945-1.06-.946-1.058-4.041.308c-2.223.17-5.391.479-7.04.686-1.65.208-5.222.627-7.938.93-4.91.55-11.798 1.6-15.17 2.312-.97.205-2.24.447-2.822.537-6.583 1.019-22.143 4.017-26.282 5.064-.679.171-3.457.817-6.173 1.433-2.717.617-5.733 1.325-6.703 1.575-4.606 1.184-9.147 2.457-12.524 3.512-2.037.637-4.378 1.343-5.202 1.569-.825.225-3.244 1.198-5.378 2.16-21.576 1.465-46.484 12.55-63.449 15.333-1.627.248-3.345.783-5.248 1.634-6.21 2.528-16.228.438-21.592 5.273-1.002.916-1.378 1.053-2.372.866-8.762 1.39-10.904 3.434.325 3.678 3.484-2.33 6.827-.883 11.194-2.747.68-.32 2.029-.618 2.999-.66 2.677-.117 3.176-.232 3.825-.883 2.97-.223 29.45-3.339 28.158 7.478-.359 0-.95.329-1.314.73-.514.57-.917.683-1.817.514-12.588 1.283-21.9 10.342-33.03 9.355-2.303-.204-3.849-.183-4.587.063-1.775.591-1.918.98-.36.98.782 0 1.511-.089 1.62-.197.108-.108 1.245-.258 2.527-.332 1.984-.115 2.38-.039 2.677.514.297.556.551.603 1.778.327.786-.177 1.861-.31 2.388-.294.526.015 1.89-.212 3.03-.503 1.141-.292 4.237-.78 6.88-1.086 5.234-.606 10.946-1.44 13.448-1.964.874-.183 3.934-.582 6.802-.888 2.869-.306 6.679-.8 8.467-1.097 1.789-.297 4.38-.622 5.756-.721l2.504-.18 1.469-2.875c.807-1.581 1.7-3.272 1.984-3.757 2.006-3.878 4.821-7.737 6.62-9.684 1.116-1.207 2.029-2.341 2.029-2.522 0-.487 2.499-1.478 3.24-1.285.913.24.83 2.036-.225 4.84-.476 1.264-1.037 3.133-1.247 4.152-1.032 5.026-1.405 7.4-1.617 10.315-.127 1.75-.297 3.29-.377 3.426-.08.136-.225 1.326-.322 2.646-.097 1.32-.248 2.638-.335 2.929-.087.291-.402 2.593-.7 5.115-1.618 13.715-3.533 20.1-7.162 23.88-1.951 2.032-2.137 2.402-1.205 2.402.99 0 1.685.92 1.166 1.544-.32.387-1.615.463-6.305.371-3.246-.064-20.506-.12-38.357-.125l-45.332-.015c-38.268-.016-91.584-.48-91.987-.803-.64-.512-.55-.895.449-1.893l.89-.89-.948-1.004c-.521-.552-1.16-1.454-1.42-2.005-.428-.906-.455-.746-.285 1.682.231 3.302.038 3.516-3.641 4.024-3.005.415-3.8 1.076-4.19 3.484l-.22 1.354 1.199-.304c1.339-.34 6.834-.34 58.349 0 88.169.584 134.39.738 134.856.45.187-.115.191-1.142.01-2.494-.284-2.115-.219-2.545.815-5.395.618-1.703 1.248-3.89 1.399-4.86.15-.97.434-2.479.63-3.352.194-.873.616-3.175.935-5.115.797-4.837 1.874-9.947 2.454-11.642.266-.776.74-2.522 1.053-3.88 1.088-4.714 2.109-7.415 3.617-9.572.834-1.193 1.516-2.29 1.516-2.44 0-.551 4.98-5.312 6.26-5.984.728-.382 1.404-.78 1.5-.883.098-.103.614-.466 1.147-.805.582-.37.971-.932.972-1.403 0-.432.318-1.305.705-1.94.388-.636.706-1.35.707-1.588 25.606-5.093 9.83-5.972 47.19-21.96.447.113 1.322-.032 1.945-.32.624-.29 1.961-.587 2.973-.662 1.011-.076 2.043-.302 2.293-.503s1.617-.462 3.04-.58c1.421-.117 2.727-.301 2.901-.409.174-.107.757-.262 1.295-.343 4.65-.7 6.22-.971 8.21-1.42 3.103-.7 4.171-.854 6.205-.898.953-.02 2.21-.18 2.791-.354.583-.174 2.011-.386 3.175-.471 4.83-.354 16.08-1.3 18.532-1.559 1.45-.152 6.366-.232 10.925-.176 4.56.055 9.749.096 11.531.09 1.782-.006 3.925.183 4.763.421.837.238 2.478.393 3.646.345 1.44-.06 3.167.205 5.36.822 1.78.5 3.697.91 4.26.91.562 0 1.944.317 3.072.705 1.128.388 2.481.706 3.007.706.526 0 1.81.335 2.855.745 5.047 1.982 7.88 3.257 8.482 3.818.364.338 1.095.818 1.625 1.066.53.247 1.203.568 1.494.712.442.22.511 1.122.42 5.516-.09 4.288.025 5.886.625 8.704.992 4.652 3.07 8.836 5.169 10.406.883.661 1.547 1.447 1.547 1.831 0 .37.159.772.353.892.194.12.352.586.352 1.036 0 1.41.625 1.596 4.246 1.27 1.837-.165 6.752-.4 10.924-.521 12.017-.35 17.265-.538 20.108-.723 1.455-.094 5.98-.268 10.054-.387 4.075-.118 7.492-.266 7.594-.328.101-.063 3.07-.166 6.596-.23 4.501-.082 6.533.004 6.818.288.658.658.045 1.8-1.537 2.862-.814.546-1.44 1.146-1.39 1.333.092.358.247.4 1.704.471.553.027.855.216.767.48-.102.305-1.342.453-4.175.498-19.515.306-27.178.573-29.606 1.03a9.766 9.766 0 0 1-1.121.126c-.956.044-1.754 1.065-1.495 1.916.483 1.589 1.078 1.903 3.063 1.616 1.015-.146 5.656-.364 10.313-.483 13.014-.334 19.707-.586 20.25-.763.762-.248 2.857.558 2.857 1.099 0 .264-.794 1.15-1.764 1.968-.97.818-1.764 1.621-1.764 1.785 0 .163.516.3 1.147.303 1.328.006 2.216.464 1.898.978-.266.43-5.073.7-17.332.971-13.884.308-15.382.415-16.404 1.177-.86.64-1.043 1.92-.377 2.617.148.155 3.27.114 6.937-.091 12.586-.704 24.412-1.232 25.19-1.125 2.353.325 2.6.716 1.322 2.108l-.793.865 2.9-.233c1.596-.128 3.141-.324 3.433-.436.758-.29 1.243-2.292 1.442-5.955.095-1.746.256-4.048.358-5.115.101-1.067.271-4.648.377-7.957.168-5.22.12-6.079-.366-6.482-.69-.573-.706-1.323-.056-2.57.485-.93.478-5.819-.012-9.027-.175-1.147-.204-1.163-1.834-1.058l-1.656.107.005 2.116c.004 1.164.161 4.34.353 7.056.46 6.542.28 24.578-.267 26.537-.438 1.57-1.21 2.219-1.56 1.31-.113-.297-.027-4.462.193-9.255.68-14.815.38-26.577-.698-27.267-.632-.406-2.182 1.378-1.868 2.148.576 1.41.372 1.583-2.155 1.817-1.358.126-6.676.338-11.818.472-5.142.133-10.857.304-12.7.38-1.843.076-8.193.315-14.111.53-11.582.423-12.58.598-13.375 2.343-.333.73-.325.985.04 1.23.493.334 9.944.076 21.625-.589 2.85-.162 15.705-.508 26.106-.702 3.104-.058 6.04-.26 6.526-.45 2.138-.833 2.327.464.353 2.42-1.538 1.521-1.687 1.893-.882 2.202.99.38.533.887-.97 1.074-.825.103-6.013.279-11.53.391-5.515.112-10.833.27-11.817.35-.984.08-4.9.238-8.704.35-3.803.113-7.295.268-7.76.346-.466.077-5.213.19-10.548.25-10.63.12-10.971.048-8.34-1.77 3.311-2.29 5.18-7.608 5.23-14.877.03-4.682-.131-6.04-.96-8.02-.284-.681-.516-1.54-.516-1.91 0-1.207 1.863.146 2.949 2.141.536.986 1.041 1.792 1.122 1.792.081 0 .746-.227 1.478-.505 2.18-.828 4.89-1.259 7.962-1.264 2.952-.005 14.458-.863 16.779-1.251 1.834-.307 6.66-1.858 8.156-2.622 2.883-1.47 6.155-6.566 7.043-10.968.777-3.854-.71-13.5-2.796-18.131-.61-1.354-1.224-2.545-1.365-2.646-.141-.101-.568-.682-.949-1.29-1.251-2.001-3.587-4.25-5.623-5.416-2.114-1.21-2.655-1.908-1.99-2.573.303-.303 1.062-.078 3.05.906 2.76 1.365 5.811 1.818 5.811.863 0-.567-3.424-2.827-4.389-2.896-2.275-.163-2.9-.895-3.212-3.766-.278-2.547-.407-2.848-1.128-2.633-.596.178-12.44.778-21.61 1.095-5.325.185-5.338.186-4.233.505.702.202.867.459.808 1.258-.041.553-.28 1.134-.53 1.293-.25.159-2.36.292-4.688.295-2.328.004-6.694.083-9.701.176-3.007.093-11.282.24-18.389.33-7.106.088-14.885.25-17.286.36-13.704.627-20.478.847-33.117 1.075-5.53.1-12.99.261-16.58.358-3.59.097-10.733.254-15.875.35-5.142.095-12.683.274-16.757.397-7.168.216-7.43.2-8.056-.5-.631-.705-.626-.736.228-1.296 1.232-.807 1.939-.869 14.178-1.239 6.015-.182 11.81-.404 12.876-.493 3.032-.253 21.605-.77 39.335-1.095 5.045-.093 11.553-.267 14.464-.389 2.91-.12 7.779-.265 10.819-.32 3.04-.056 5.7-.208 5.909-.338.21-.13.382-.459.382-.732 0-.272.277-.64.617-.815.68-.353 6.732-.752 14.376-.95 2.716-.07 6.447-.223 8.29-.34 1.843-.117 5.653-.36 8.467-.542l7.76-.497c7.622-.485 15.816-.854 19.58-.882 2.328-.018 5.106-.125 6.173-.238 2.305-.245 5.79.557 6.796 1.563.663.663.819 1.935.549 4.474-.102.956.057 1.143 1.651 1.94 7.3 3.65 10.922 8.527 13.435 18.09 1.176 4.476 1.404 4.948 2.186 4.53.347-.186 1.26-.423 2.03-.527 2.895-.39 5.639-.71 5.809-.68.097.019 2.426.134 5.176.257 5.58.25 8.255.87 9.488 2.202 1.53 1.65 1.5 5.938-.04 5.938-.449 0-.772-.38-1-1.178-.583-2.032-2-2.54-9.567-3.426-4.61-.54-10.104-.593-11.403-.109-.475.177-.771.538-.705.858.095.46.908.575 4.876.688 2.777.08 5.572.362 6.703.677 1.067.298 2.344.543 2.838.545.494.002 2.24.454 3.88 1.004 2.842.953 2.988 1.053 3.094 2.117.102 1.037.032 1.117-.982 1.117-.6 0-1.682-.258-2.403-.572-.722-.314-1.868-.696-2.547-.847-.679-.152-2.504-.597-4.057-.99-1.7-.43-4.47-.776-6.967-.87l-4.145-.156.005 1.806c.008 2.66.24 2.874 2.7 2.484 2.427-.385 11.779.012 14.58.618 3.784.819 6.12 2.12 6.746 3.759.173.452.512.757.753.678.624-.206.746-1.567.249-2.769-.537-1.295.012-2.083 1.451-2.083.913 0 2.72.604 3.149 1.052.097.102.861.65 1.699 1.218 1.58 1.073 5.004 4.604 5.004 5.162 0 .175.478 1.096 1.063 2.046 2.17 3.527 2.572 5.31 2.518 11.16-.067 7.154-.872 12.717-2.717 18.785-.226.745-.139.794 1.421.794.948 0 2.114.265 2.713.617.956.561 1.089.567 1.466.058 1.713-2.312 5.626-1.824 6.905.861.816 1.713 1.589 8.385 1.498 12.928-.033 1.649-.068 8.396-.078 14.993l-.019 11.994-1.104 1.147c-.962.998-1.337 1.146-2.897 1.146-2.25 0-3.445-.749-3.293-2.062.086-.746.396-1.028 1.52-1.386 2.183-.695 2.645-1.487 2.645-4.528 0-1.434-.141-2.607-.314-2.607-.173 0-.566.595-.873 1.323-1.126 2.67-1.3 2.76-7.632 3.96-1.843.35-4.582.746-6.085.881-1.696.153-2.738.402-2.743.657-.047 2.19-.321 5.119-.527 5.627-.663 1.637-4.305 2.25-5.26.886-.464-.662-.474-.886-.068-1.5.262-.397.799-.77 1.193-.83 1.594-.24 1.988-1.268 2.234-5.825.47-8.71-.176-32.835-.953-35.575-.337-1.19-3.68-2.54-4.201-1.697-.246.397-.419 2.113-.87 8.633-.203 2.91-.458 5.728-.568 6.262-.204.989.062 1.15 1.652.998 1.082-.103 2.438.646 2.438 1.347 0 .945-2.081 1.592-4.282 1.33l-1.716-.202v1.198c0 .966.31 1.49 1.588 2.687.873.818 1.587 1.774 1.587 2.124 0 .35.454 1.157 1.008 1.795 2.772 3.186 2.556 9.915-.399 12.447-1.425 1.22-3.22 1.636-9.238 2.135-3.716.308-4.305.563-4.595 1.99-.385 1.892-1.468 4.637-3.15 7.988-1.332 2.651-2.13 3.682-5.13 6.626-3.396 3.333-5.338 5.044-6.162 5.427-1.573.732-5.524 3.638-5.275 3.88.258.25 3.392-.044 9.129-.856.582-.082 3.122-.243 5.644-.357 2.523-.114 6.412-.303 8.643-.42 2.232-.118 5.23-.258 6.663-.312 1.433-.055 4.846-.22 7.585-.369 6.068-.329 4.987-.33 13.206.016 5.855.246 6.925.378 7.585.938l.768.652-.94.841c-2.07 1.85-7.576 3.33-12.642 3.4-.854.011-1.071.107-.705.311.694.387 7.607.823 14.464.913 3.007.04 5.675.097 5.928.127.254.03.87.948 1.369 2.039l.908 1.983-1.192.908c-.656.499-1.79 1.521-2.522 2.271-.968.993-1.517 1.305-2.017 1.146-.379-.12-2.003.136-3.61.57-2.805.757-3.532.79-18.267.814-8.44.014-19.473-.093-24.518-.237-8.389-.24-22.674-.438-58.208-.802-10.076.765-21.176-.208-29.324-.36-7.976-.141-12.993-.386-15.084-.735-2.967-.496-3.172-.49-3.88.132-12.169 4.41-26.217 6.435-34.307 6.437-8.563 0-8.964-.03-9.386-.705-.384-.616-.824-.706-3.442-.707l-3.002-.002c-5.218-5.484-10.277-4.246-19.1-4.399-8.316-.144-23.772-.306-34.346-.36-10.575-.052-27.323-.296-37.218-.54-20.615-.509-24.878-.523-87.49-.296-14.551.053-30.426.068-35.277.032-4.85-.035-17.934-.107-29.075-.16-14.764-.069-20.291-.204-20.389-.497-.206-.618 3.246-1.333 6.512-1.348 2.877-.014 3.727-.325 2.042-.748-.478-.12-.965-.52-1.082-.888-.118-.374-.535-.67-.941-.67-.866 0-2.046-1.253-2.046-2.171 0-.98-.588-.784-1.175.392-.572 1.147-.394 1.46 1.194 2.094l.863.345-.817.022c-.45.013-1.16-.16-1.579-.385-.419-.224-1.639-.503-2.71-.62-1.594-.175-1.93-.326-1.846-.828.144-.854-.509-.773-.735.092-.252.964-1.042.885-2.377-.239-.937-.788-1.231-.875-1.786-.529-.365.228-1.083.415-1.594.415-.802 0-.867-.075-.474-.55.983-1.184 2.84-1.567 8.583-1.766 10.096-.352 10.965-.41 11.861-.791l.882-.376-1.058-.03c-.582-.016-4.472-.115-8.643-.22-4.172-.103-8.3-.334-9.173-.511-.873-.178-3.65-.307-6.173-.287-5.156.04-14.262-.336-17.992-.743-1.358-.149-4.063-.3-6.01-.338-3.537-.069-3.543-.068-4.498 1.005-.527.59-.96 1.194-.962 1.34-.007.4-2.02 2.82-4.314 5.182-18.012 10.82-42.288 10.32-46.216 2.305zm13.924 1.366c2.274 0 2.865-.121 3.45-.706.388-.388.965-.705 1.283-.705 11.376-4.641 14.409-7.832 20.358-19.645 1.097-2.204 1.995-4.233 1.995-4.51 0-.276.238-.594.529-.706.768-.295.649-1.026-.265-1.625-1.07-.703-3.738-6.123-4.018-8.166-.124-.905-.362-1.729-.529-1.832-.167-.103-.303-.566-.303-1.028 0-.462-.135-.924-.3-1.026-.166-.102-.41 1.674-.54 3.948-.133 2.273-.388 4.69-.568 5.368-1.09 4.113-1.583 5.395-3.049 7.936-3.11 5.39-5.083 7.1-9.36 8.107-3.175.749-4.813.674-6.65-.306-2.01-1.072-2.302-2.187-.727-2.782 1.113-.42 1.457-.96.61-.96-.7 0-1.721-1.267-1.584-1.965.066-.334.557-.933 1.091-1.331.923-.69 1.082-.7 3.175-.223 4.92 1.12 7.637.052 10.3-4.051.883-1.36 1.605-2.732 1.605-3.05 0-.32.241-1.266.537-2.103.43-1.222.931-5.75.972-8.797.025-1.88-.87-7.28-1.32-7.967-.298-.455-.542-1.127-.542-1.492 0-.686-1.342-2.72-2.909-4.412-1.03-1.111-4.533-2.63-6.773-2.938-6.958-.953-11.838 6.097-11.838 17.1 0 3.403-.04 3.6-.864 4.14-.49.32-1.166.471-1.56.346-.492-.156-.755-.026-.905.446-.23.726-2.658 1.695-3.468 1.384-.275-.106-.781-.784-1.125-1.508-.729-1.538-.62-5.363.335-11.73.413-2.755 1.995-6.884 3.473-9.067 1.722-2.544 2.372-3.24 4.538-4.864 3.999-2.996 7.91-4.002 12.39-3.185 3.449.628 4.72 1.528 8.255 5.844.913 1.115 1.768 2.028 1.9 2.028.299 0-3.458-8.453-4.077-9.172-.25-.291-.516-.72-.59-.955-.4-1.27-4.633-5.336-6.7-6.435-1.978-1.054-2.649-1.219-5.5-1.356-3.233-.155-3.246-.153-3.47.737-.139.556-.643 1.067-1.335 1.354-1.211.501-5.434 3.593-6.15 4.502-.566.72-3.5 5.16-4.727 7.156-1.28 2.08-3.367 8.47-3.987 12.206-.743 4.474-.427 12.942.708 18.95.66 3.497 2.397 9.672 3.096 11.008.325.62.591 1.331.591 1.58 0 .247.882 2.17 1.96 4.27 1.81 3.526 1.932 3.912 1.577 4.988-.721 2.184-.142 2.714 2.176 5.067 1.155 1.173 2.375 2.133 2.712 2.133.337 0 .916.222 1.288.494.579.423.776.423 1.38 0 .458-.32 1.669-.494 3.45-.494zm361.804-1.67c5.66.069 6.047.03 6.959-.687.53-.417 1.243-.76 1.582-.76.339 0 1.251-.634 2.027-1.41 3.846-2.67 4.777-5.91 7.46-9.873 1.558-2.282 4.057-7.39 5.44-11.117.928-2.506 2.338-9.742 3.024-15.523.862-7.264-.488-16.433-3.22-21.872-.78-1.552-1.623-3.399-1.874-4.104-.919-2.584-6.573-9.177-12.158-14.176-4.376-3.917-13.181-7.248-19.256-7.284-6.314-.037-13.675 4.797-16.74 10.994-.798 1.61-1.957 3.802-2.578 4.869-1.536 2.64-3.76 7.59-3.76 8.37 0 .35-.312 1.492-.695 2.538-2.263 6.192-2.996 18.57-1.467 24.77.414 1.676.752 3.301.752 3.611 0 .799 1.678 6.53 2.301 7.86.287.611.526 1.326.532 1.587.006.262.244.784.53 1.161.284.377.517.975.517 1.33 0 .79 2.733 6.29 4.222 8.496 6.528 5.581 18.088 10.973 26.402 11.22zm-.866-15.924c-1.378-.422-3.36-2.594-3.065-3.36.145-.379.616-.535 1.488-.496a40.05 40.05 0 0 0 2.687.007c1.364-.049 1.31-.09-1.587-1.216-4.282-1.665-4.807-1.952-5.323-2.918-.385-.72-.377-1.11.049-2.342.467-1.351.628-1.489 1.852-1.59.738-.06 2.133.152 3.101.474 2.478.823 5.472.447 7.366-.926 2.712-1.964 4.048-4.738 5.305-11.017.474-2.365-.008-8.322-.922-11.412-.928-3.133-4.287-8.197-6.401-9.65-.63-.432-1.147-1.025-1.147-1.317 0-.402.277-.483 1.147-.337.63.106 1.424.302 1.764.437 1.384.547.498-.532-1.059-1.29-2.806-1.365-8.768-1.242-11.73.243-2.07 1.037-5.644 5.45-5.644 6.969 0 .242-.317.711-.705 1.044-.517.442-.718 1.078-.75 2.371-.024.972-.089 2.204-.144 2.738-.276 2.7-.185 7.79.155 8.666.487 1.252.497 3.255.02 4.145-.205.384-.735.682-1.213.682-.467 0-.947.159-1.067.353-.35.567-.781.42-2.063-.705-.663-.583-1.293-1.059-1.4-1.059-.108 0-.246.513-.307 1.14-.084.861-.336 1.22-1.031 1.462-2.96 1.034-4.091-1.31-4.406-9.128-.119-2.94.093-4.714 1.346-11.29.35-1.83 1.394-4.852 2.357-6.817 1.854-3.783 2.615-4.993 4.326-6.877 1.464-1.613 2.714-2.56 4.69-3.549 3.168-1.586 5.984-2.4 7.229-2.088.489.123 1.209.25 1.6.283 3.563.301 7.022 1.473 7.853 2.66.266.38.67.69.898.69.461 0 4.1 3.712 5.677 5.79 4.233 5.58 7.577 16.899 7.148 24.196-.571 9.723-2.475 15.32-6.98 20.52-2.945 3.399-8.02 5.46-11.114 4.513zm-258.181 15.536c-.12-.194-.377-.353-.571-.353-.194 0-.255.16-.135.353.12.194.377.353.571.353.194 0 .255-.159.135-.353zm7.429-.187c-.873-.66-1.256-.657-1.256.01 0 .346.338.526.97.519.93-.011.942-.033.286-.53zm10.739.01c.476-.574.362-.645-.5-.314-.307.118-.559.356-.559.529 0 .488.572.372 1.059-.214zm9.878.177c0-.194-.248-.353-.55-.353-.303 0-.452.16-.332.353.12.194.367.353.55.353.182 0 .332-.159.332-.353zm-16.822-.23c.346-.345-1.574-1.237-2.171-1.008-.427.164-.4.289.153.708.715.54 1.64.679 2.018.3zm-22.16-.475c-.12-.194-.447-.353-.727-.353-.28 0-.508.159-.508.353 0 .194.327.352.726.352.4 0 .629-.158.509-.352zm8.547-.213c-.117-.118-.421-.13-.676-.028-.281.112-.198.196.213.213.372.015.58-.068.463-.185zm54.604-2.9c-.28-.28-.887.357-.671.705.146.237.328.201.515-.102.16-.258.23-.529.156-.602zm-66.503.125c0-.328-.205-.44-.559-.304-.45.173-.467.273-.088.513.627.397.647.39.647-.209zm417.412-2.066c2.618-.151 2.418-.588-.281-.618-1.343-.015-2.72-.08-3.06-.145-.341-.065-3.516-.165-7.056-.221-3.54-.057-7.309-.22-8.376-.364-4.277-.576-8.633-.641-10.468-.156-2.107.557-3.6 1.448-2.874 1.715.453.166 28.793-.02 32.115-.211zm-413.531-.944c0-.194-.238-.352-.53-.352-.29 0-.529.158-.529.352 0 .194.239.353.53.353.29 0 .529-.159.529-.353zm322.439-.338c5.712-.313 16.305-.658 27.87-.907 2.618-.057 7.11-.3 9.982-.542 5.614-.472 5.816-.56 5.808-2.533-.005-1.131.634-2.027 1.45-2.035.6-.005 2.993-.782 4.808-1.561.582-.25 1.733-.738 2.557-1.085 1.447-.608 2.143-1.47.882-1.091-3.55 1.065-8.262 2.086-14.199 3.077-1.067.178-4.718.3-8.114.272-3.395-.029-8.555.047-11.465.169-2.91.121-6.363.228-7.673.236-1.31.01-2.381.168-2.381.355 0 .186.198.35.44.365.243.015.76.078 1.147.142.388.063 3.563.212 7.056.33 7.065.24 9.701.5 9.701.959 0 .169-.04.32-.088.334-.723.223-11.864.97-15.434 1.036-2.62.048-5.318.127-5.997.176-.68.048-4.966.193-9.525.322-4.56.129-9.084.407-10.055.619-2.064.45-3.704 1.215-3.704 1.728 0 .383 5.425.266 16.934-.366zm-254.882-3.03c3.298-.063 7.823-.21 10.054-.326 2.231-.115 6.236-.287 8.9-.381 4.117-.146 5.033-.285 6.119-.925.97-.573 1.156-.822.772-1.037-.278-.155-4.778-.349-10-.43-9.44-.146-13.552-.588-13.552-1.454 0-.702 4.067-1.207 11.465-1.424 3.88-.114 9.199-.285 11.818-.38 2.62-.094 9.002-.207 14.184-.25 9.042-.075 9.443-.05 9.934.622.511.7.515.7 1.286.001.561-.508 1.21-.683 2.368-.638.878.034 1.954-.074 2.391-.24.556-.212 1.035-.135 1.59.253.712.499.824.5 1.097.013.23-.412.985-.552 3.137-.584l2.834-.041-.222.885c-.186.737-.097.885.529.885.454 0 .906-.34 1.144-.863.216-.474.605-.944.865-1.043.592-.227 2.608.454 2.608.882 0 .175.255.318.566.318.354 0 .493-.195.369-.518-.282-.732.114-.883 2.835-1.084 1.322-.097 2.641-.198 2.932-.225 1.53-.139 1.992.11 2.422 1.298.294.814.672 1.235 1.108 1.235.872 0 1.22-.612.704-1.235-.566-.681-.143-1.235.944-1.235.777 0 .878.125.73.901-.153.8-.068.89.752.794.733-.085.902-.272.815-.9-.104-.749.013-.795 2.028-.795 2.198 0 2.697.382 1.403 1.075-.404.216-.662.467-.573.557.24.239 2.849-1.028 3.179-1.543.352-.552 2.588-.582 2.922-.04.137.22-.054.657-.423.97-.754.64-.898 2.192-.224 2.42.243.081.441-.026.441-.24 0-.212.357-.948.794-1.635.725-1.141.904-1.233 2.075-1.056.918.138 1.413.035 1.744-.364.308-.37.79-.492 1.44-.362.536.107 1.07.042 1.186-.146.324-.524 2.147-.405 2.626.173.235.282.329.671.21.864-.28.453 1.116 1.204 1.77.953.277-.106.502-.495.502-.866 0-.91.87-1.572 1.715-1.304.972.308 1.216 1.208.586 2.17-.805 1.228-.656 1.78.257.947.437-.398 1.544-.832 2.461-.963 1.524-.219 2.734-.904 1.596-.904-.265 0-.79-.235-1.167-.523-.593-.452-.614-.57-.156-.876.85-.569 1.699-.42 1.94.34.156.49.534.706 1.235.706 1.01 0 1.718.983 1.252 1.737a.396.396 0 0 0 .136.542c.187.115.696-.27 1.13-.858.434-.587 1.007-1.068 1.273-1.068s.385-.16.264-.355c-.12-.196.014-.445.3-.555.661-.254 3.406 1.46 3.406 2.128 0 .775.6.978 2.13.72 1.76-.297 1.79-.95.075-1.564-1.437-.514-1.838-.921-1.847-1.873-.008-.89 1.21-.775 1.878.176l.559.794.67-.845c.716-.9 1.568-.745 1.423.259-.046.322.04.957.194 1.412.22.651.438.773 1.038.576 1.233-.407 2.882-.38 2.805.047-.04.214.327.604.815.865.716.383 1.023.39 1.595.032.467-.292 1.251-.36 2.31-.202 1.472.221 1.67.159 2.443-.775.757-.913.888-.958 1.291-.444.563.719 2.92 1.118 4.317.732.792-.22 1.086-.53 1.17-1.24.12-1.018.918-1.284 1.25-.417.112.29.438.529.724.529s.74.314 1.009.697c.471.674.834.693 10.439.543 5.473-.085 10.104-.25 10.291-.366.605-.374.364-1.236-.62-2.213-.528-.525-.973-1.113-.99-1.307-.03-.37-.922-3.686-1.002-3.729-.025-.014-3.296-.103-7.268-.198-3.973-.096-7.411-.33-7.642-.522-.277-.23-.496-.222-.648.022-.125.204-.417.368-.648.365-.288-.004-.301-.087-.042-.265.612-.419.86-1.45.414-1.725-.226-.14-1.128-.264-2.006-.276-1.593-.022-1.595-.023-1.699-1.383-.081-1.06.158-1.762 1.085-3.175a36.965 36.965 0 0 0 2.13-3.828c2.613-5.601 4.873-10.771 5.018-11.483.09-.439.46-1.391.822-2.117.363-.725 1.479-3.304 2.48-5.729 1.536-3.722 2.252-5.365 3.11-7.144.07-.145 0-.264-.159-.264-.157 0-.674.754-1.15 1.676-.474.921-1.43 2.707-2.124 3.968-1.69 3.075-4.243 8.72-4.243 9.386 0 .588-1.224 3.378-2.926 6.666a209.972 209.972 0 0 0-1.654 3.258c-.726 1.486-3.292 4.71-5.297 6.66-3.14 3.049-9.642 5.417-16.228 5.911-1.455.11-5.424.434-8.82.722-3.395.288-9.19.625-12.876.75-16.08.541-21.584.891-23.107 1.468-.291.11-1.482.187-2.646.17-1.164-.018-9.102-.022-17.639-.01-8.537.013-20.046-.014-25.576-.06-5.53-.045-16.14-.103-23.576-.127-13.154-.044-13.535-.026-14 .66-2.889 4.268-5.55 6.71-9.827 9.017-1.48.798-2.692 1.541-2.692 1.65 0 .11 1.945.079 4.322-.069 2.377-.147 7.02-.32 10.319-.384zm133.7-7.923c-.265-.43.703-.857 1.22-.537.204.126.37.378.37.56 0 .445-1.312.426-1.59-.023zm-1.938-.703c0-.678.69-.956 1.173-.473.267.267-.4 1.179-.863 1.179-.17 0-.31-.318-.31-.706zm8.174.143c-.634-.444-.714-.662-.386-1.057.553-.666 1.708-.632 1.973.06.117.306-.012.781-.287 1.057-.432.432-.61.424-1.3-.06zm-3.323-.171c-.99-.577-.714-1.084.526-.964.753.072 1.184.32 1.26.727.133.7-.784.82-1.786.237zm9.966-5.616c0-.194.15-.353.332-.353.182 0 .43.159.55.353.12.194-.03.352-.332.352-.303 0-.55-.158-.55-.352zm23.735 13.462c-.774-1.353-1.89-1.56-7.271-1.349-3.627.142-4.802.469-4.347 1.206.112.18 2.313.437 4.891.57 2.578.132 5.243.369 5.922.525.68.157 1.28.254 1.334.215.055-.038-.183-.564-.529-1.167zm-68.239-4.39c-.207-.388-.572-.576-.884-.457-.292.112-.597.204-.678.204-.082 0-.148.24-.148.535 0 .374.31.51 1.032.456.89-.068.983-.17.678-.739zm-208.261-.464c2.044-.174 32.961-.511 45.787-.5l6.276.006-1.337-1.342a56.248 56.248 0 0 1-2.265-2.419c-.906-1.051-1.023-1.082-4.94-1.303-2.205-.124-14.25-.238-26.764-.254-30.1-.037-27.164-.118-27.164.746 0 .396-.298 1.309-.663 2.028-.364.72-.773 1.823-.909 2.45l-.246 1.142 5.054-.187c2.78-.103 6.006-.267 7.17-.366zm180.574-.572c-.132-.213-.336-.163-.52.128-.482.761-.362 1.134.211.658.289-.24.428-.593.309-.786zm195.287-5.718c1.636-.118 3.06-.298 3.162-.401.352-.352-.558-1.372-1.402-1.571-1.09-.257-3.433-4.597-3.216-5.955.26-1.628 1.92-2.596 4.594-2.679 10.924-.338 17.289-.595 17.923-.725 1.314-.267 2.4-3.074 2.381-6.157-.015-2.65-.275-3.429-2.014-6.044-.34-.512-.712-1.702-.825-2.646l-.207-1.717.75.672c.49.44.75 1.094.75 1.894 0 .849.316 1.582 1.036 2.402.57.649 1.315 2.064 1.655 3.143.533 1.69.567 2.383.245 4.982-.266 2.148-.592 3.29-1.128 3.959-2.044 2.549-2.001 2.323-.926 4.853 1.456 3.426 1.791 3.734 3.698 3.401 2.585-.451 2.536-.124 2.321-15.604-.104-7.47-.261-14.297-.35-15.17-.146-1.446-.245-2.757-.783-10.38-.187-2.65-1.138-4.982-2.147-5.266a30.047 30.047 0 0 0-1.735-.4c-1.068-.214-1.12-.17-1.325 1.12-.117.74-.225 2.852-.24 4.696-.015 1.843-.198 4.087-.407 4.986-.37 1.59-.408 1.627-1.406 1.34-.565-.161-4.847-.219-9.517-.127-7.136.14-8.651.263-9.5.764-.994.587-1.22 1.254-.797 2.356.401 1.046 16.061.565 16.727-.513.154-.248.841-.47 1.528-.494.687-.024 1.364-.158 1.503-.298.603-.602 1.195-.203 1.195.805 0 1.015.063 1.058 1.548 1.058.987 0 1.844.24 2.364.66l.815.66-1.111.575c-.7.362-1.98.575-3.455.575h-2.344l.163 1.407c.195 1.692-.119 1.984-2.214 2.06-.873.031-4.81.226-8.75.432-5.335.28-7.478.272-8.393-.03-1.541-.508-2.555.067-3.697 2.1-.434.772-1.548 1.921-2.475 2.554-3.922 2.677-4.59 7.63-1.374 10.178 1.676 1.328 2.1 2.402 1.205 3.056-.351.257-1.094.468-1.65.468-2.056 0-8.624-3.35-12.928-6.593-.853-.643-1.664-1.168-1.802-1.168-.14 0-.206 1.08-.148 2.4.057 1.321-.03 3.028-.195 3.793-.164.765-.404 2.503-.533 3.86-.13 1.359-.523 3.553-.876 4.877-.456 1.715-.524 2.443-.238 2.53.222.067.6.175.842.239.497.132 19.166-.59 23.703-.917zm35.83-12.722c4.874-.733 11.8-1.47 19.932-2.122 6.568-.527 13.255-1.14 15.403-1.411.55-.07 2.271-.218 3.824-.329 1.552-.11 3.243-.28 3.759-.377.515-.097 2.023-.242 3.351-.323 1.328-.081 2.531-.16 2.673-.176.142-.015.658-.816 1.147-1.78 1.508-2.976 1.094-7.205-.888-9.075-.575-.544-1.047-1.195-1.047-1.447s-.405-.864-.901-1.36c-.717-.716-1.133-.86-2.029-.704-.62.109-2.714.291-4.654.405-1.94.114-5.195.361-7.232.55-5.977.55-11.893.995-16.052 1.204-2.134.108-4.674.268-5.644.356-1.724.156-11.134.846-14.288 1.047-.873.056-1.723.122-1.889.147-.166.025-.21 2.467-.099 5.426.112 2.959.208 6.53.214 7.937.007 1.804.14 2.559.451 2.56.243.001 2.029-.236 3.97-.528zm65.247-7.617c2.9-.389 5.492-.888 5.758-1.11.973-.807 1.9-3.195 1.937-4.987.029-1.459-.22-2.292-1.282-4.28-1.826-3.423-1.992-3.484-8.089-2.974-2.755.23-5.3.569-5.655.753-.594.308-.638.82-.545 6.393.127 7.537.102 7.423 1.505 7.137.603-.123 3.47-.542 6.37-.932zm10.228-9.75c-.078-1.111-.212-5.12-.299-8.908-.086-3.79-.27-8.117-.408-9.617-.241-2.614-.3-2.756-1.433-3.425-1.139-.672-1.195-.674-1.528-.052-.19.355-.44 1.975-.555 3.601l-.337 4.745c-.144 2.04-.05 2.242 1.402 2.986 2.109 1.081 1.254 2.315-1.743 2.517-1.342.09-1.836.717-1.126 1.43.247.248.754.927 1.126 1.509.372.582 1.326 1.951 2.12 3.043.794 1.09 1.65 2.48 1.9 3.086.696 1.68 1.039 1.323.881-.916zm-28.039-7.708c1.454-1.419.635-1.74-4.447-1.74-4.213 0-4.454.04-5.091.827-.465.574-.574 1.006-.356 1.412.271.507.896.57 4.669.467 4.042-.11 4.419-.18 5.225-.966zm-576.602-2.269c.35-.388.52-.705.374-.705-.144 0-.667.317-1.16.705-.577.454-.71.706-.375.706.287 0 .81-.318 1.16-.706zm231.103-.201c1.048-.305 1.906-.702 1.906-.882 0-.437-1.035-.414-2.505.056-3.893 1.198-1.221 1.355.599.826zm365.62-.463c0-.42-1.364-.756-1.59-.391-.098.16.021.37.265.468.723.292 1.325.256 1.325-.077zm-4.897-1.453c.506-1.687.012-3.174-1.055-3.174-1.183 0-1.533 2.404-.554 3.802.781 1.115 1.127.98 1.61-.628zm-592.306-1.41c.183 0 1.08-.686 1.994-1.525.913-.838 2.496-2.028 3.516-2.644 2.373-1.433 5.377-4.444 5.377-5.39 0-.622.15-.695 1.035-.5.706.154 1.352.027 2.029-.402 1.162-.736 2.737-2.288 2.748-2.709.015-.545 1.372-1.294 2.345-1.294 1.19 0 2.488-1.626 2.195-2.749-.168-.639.133-.904 2.046-1.805 9.512-4.482 16.972-7.105 23.585-8.295 1.843-.331 4.066-.77 4.939-.973 2.155-.503 13.646-.692 16.538-.273 5.006.727 6.29.998 8.333 1.764 1.164.437 2.196.908 2.293 1.047.097.139.573.373 1.058.52.485.149 2.31.956 4.057 1.794 2.477 1.19 3.882 2.187 6.392 4.534 1.77 1.655 3.427 3.528 3.684 4.163.257.635.557 1.234.666 1.331.11.097.752 1.248 1.428 2.558 1.064 2.063 1.168 2.478.779 3.101-.533.854-.286 1.397.637 1.397.903 0 2.208 2.931 2.025 4.548-.103.908.011 1.234.472 1.355.359.094.7.651.833 1.361.389 2.073 1.142 1.458 1.423-1.16.334-3.119.624-8.045.578-9.809-.091-3.532-.386-8.106-.548-8.53-.258-.672.145-1.524.722-1.524 1.302 0 3.866 3.803 5.056 7.497.237.737.656 1.323.945 1.323.286 0 1.056.585 1.71 1.3 1.019 1.11 1.272 1.232 1.747.838.619-.514.749-1.433.202-1.433-.552 0-.413-1.627.181-2.12.75-.623.03-1.408-1.293-1.408-1.291 0-1.568-.685-.843-2.087.547-1.057.539-1.103-.239-1.403-.442-.17-1.262-.493-1.822-.717l-1.019-.407.701-.78c1.212-1.347 1.239-1.621.246-2.541-.525-.486-1.05-.884-1.169-.884-.118 0-.428-.481-.688-1.069-.374-.844-.383-1.178-.043-1.587.359-.433.204-.613-.936-1.085-.751-.311-1.817-1.109-2.37-1.773-2.08-2.503-6.186-3.118-4.289-.643a917.9 917.9 0 0 0 1.588 2.06c1.763 2.282 1.28 3.357-1.29 2.875-.864-.162-1.643-.662-2.378-1.528-1.451-1.708-4.986-5.122-7.55-7.293-1.933-1.635-4.262-2.79-11.182-5.546-2.783-1.109-6.975-1.717-12.7-1.843-6.49-.144-16.778.553-20.109 1.362-5.232 1.27-11.363 3.357-14.64 4.984-1.261.626-3.012 1.459-3.89 1.851-.878.393-2.422 1.282-3.43 1.976-1.01.694-1.925 1.262-2.036 1.262-.11 0-1.121.754-2.247 1.676-1.126.921-2.35 1.874-2.719 2.117-4.666 3.067-6.828 4.659-8.954 6.59-2.528 2.296-4.242 4.177-4.844 5.315-.729 1.378-2.271 3.452-2.834 3.81-.304.194-.443 1.316-.443 3.569 0 2.752-.115 3.432-.706 4.183-.463.588-.703 1.424-.7 2.429l.007 1.532.734-1.147c.404-.63.884-1.146 1.067-1.146zm7.998-8.355c.255-.102.56-.09.676.028.118.117-.09.2-.463.185-.41-.017-.494-.1-.213-.213zm579.857 9.766c.12-.194.05-.353-.156-.353-.205 0-.374.159-.374.353 0 .194.07.352.156.352s.254-.158.374-.352zm8.643-1.235c0-.291-.063-.53-.139-.53-.076 0-.23.239-.342.53-.111.291-.049.53.139.53s.342-.239.342-.53zm-84.667-1.108c2.67-.247 3.175-.553 3.175-1.921 0-1.695-1.64-2.093-6.703-1.627-1.261.116-4.753.316-7.76.443-3.008.128-5.747.38-6.086.56-.632.334-.879 2.381-.353 2.93.272.283 13.648-.007 17.727-.385zm62.57-1.671c1.527-.088 2.929-.313 3.115-.5.187-.187.287-.795.224-1.352l-.116-1.013-4.336.057c-4.726.062-5.365.289-5.365 1.897 0 1.14.337 1.313 2.286 1.173.78-.056 2.667-.174 4.193-.262zm14.355-2.169c-.034-.357-1.783-.962-1.783-.617 0 .313 1.206 1.14 1.525 1.046.16-.046.277-.24.258-.429zM284.3 56.353c2.387-.166 3.193-.36 3.67-.889.367-.405 1.078-.676 1.772-.676.638 0 1.246-.14 1.353-.313.52-.843-.932-1.022-6.782-.835-5.572.177-6.133.254-6.468.88-.202.378-.277 1.046-.167 1.485.178.712.381.785 1.882.679.925-.066 3.058-.215 4.74-.331zm-459.18-3.516c-.783-.593-1.255-.665-1.255-.191 0 .18.278.4.618.488 1.153.301 1.324.222.638-.297zm473.867-2.07c.524-.27 1.214-.787 1.532-1.146.53-.6 2.096-4.262 2.541-5.945.468-1.767.575-5.194.248-7.938-.866-7.28-1.772-9.549-5.196-13.01-1.033-1.044-1.882-1.996-1.888-2.117-.006-.12-.405-.505-.886-.855-1.013-.737-1.698-.49-1.384.5.227.715-.987 3.612-1.903 4.54-1.05 1.065-2.788 4.124-3.47 6.111-.56 1.633-.694 2.885-.657 6.174.026 2.269.183 4.737.35 5.484.222.992.182 1.433-.147 1.636-.248.153-1.983.219-3.857.147-1.873-.073-4.115-.011-4.981.137-1.556.265-1.575.286-1.575 1.67v1.401l2.822-.09c6.92-.222 7.142-.248 7.91-.944.748-.676.758-.674 1.349.177 2.671 3.848 6.414 5.505 9.192 4.068zm-4.015-3.35c-1.343-1.312-2.57-5.09-2.837-8.73-.462-6.322 2.518-13.2 5.709-13.174 1.866.015 2.063 1.595.308 2.463-1.066.527-3.288 2.654-3.373 3.228-.024.166-.075.42-.113.566-.551 2.104-.51 5.185.107 7.95 1.015 4.547 1.282 4.831 4.99 5.305.316.04.572.514.637 1.177.225 2.318-3.457 3.143-5.428 1.216zm-472.518 2.395c0-.533-.158-.683-.558-.53-.307.118-.699.215-.87.215-.173 0-.222.238-.11.529.318.83 1.538.66 1.538-.214zm403.578-10.357c3.007-.11 6.659-.28 8.114-.376 4.352-.288 8.293-.47 14.993-.694 3.492-.116 7.382-.274 8.643-.35 1.261-.076 4.277-.23 6.703-.34 2.425-.111 6.314-.29 8.643-.4 2.328-.108 5.399-.433 6.823-.722 1.424-.288 3.052-.422 3.616-.298 1.16.254 1.422-.443.51-1.355-.565-.565-7.052-.527-21.003.123-3.784.177-9.182.408-11.995.514-6.463.243-17.969.777-26.61 1.234-6.111.323-6.746.418-7.496 1.123-.759.713-1.059 1.7-.643 2.116.097.097 1.09.052 2.205-.1 1.116-.151 4.49-.365 7.497-.475zm-422.51-31.552c1.519-.198 6.202-.538 10.406-.756 8.95-.465 10.207-.783 11.641-2.95 1.289-1.947 2.566-4.733 2.254-4.916-.14-.081-6.048-.114-13.13-.073-13.9.081-19.744.535-20.828 1.619-.333.334-.949 1.697-1.368 3.03-.91 2.9-1.3 3.463-2.624 3.793-1.856.462-2.405-1.375-1.632-5.466.197-1.045.451-2.217.565-2.605.439-1.498-1.633 1.767-2.217 3.494-.91 2.692-.489 4.899 1.123 5.877.768.466 1.545.457 6.955-.082 3.35-.334 7.335-.768 8.854-.965zm338.806.811c-.117-.117-.421-.13-.676-.028-.282.113-.198.196.213.213.372.016.58-.068.463-.185zm-285.125-4.398c2.716-.195 8.193-.507 12.17-.692 3.978-.186 7.63-.43 8.114-.544.485-.113 2.152-.264 3.705-.336C-98.966 1.82-97.86 1.72-96.916.772c1.09-1.096 1.13-1.533 1.422-15.128.39-18.197.38-19.661-.14-20.178-.48-.478-7.875-.598-10.827-.175-5.168.74-9.584 1.402-12.171 1.824-1.65.268-4.745.672-6.88.897-10.471 1.104-18.167 2.885-18.167 4.203 0 .261 2.47.923 4.762 1.276.776.119 2.407.535 3.623.924 1.777.568 2.328.927 2.8 1.823.868 1.646 1.177 4.898.634 6.681-1.05 3.447-2.358 6.478-3.728 8.639-.548.863-1.096 2.025-1.218 2.581-.345 1.569-3.316 4.375-5.33 5.035-2.323.76-12.602.797-14.946.053-.523-.166-.807.243-1.585 2.277-.52 1.364-1.092 2.57-1.27 2.68-.178.109-.323.332-.323.495 0 .354 10.518.135 17.463-.363zm-19.338-1.588c.054-1.05-.018-1.188-.437-.84-.276.229-.45.517-.384.64.065.124.217.503.338.843.317.893.41.77.483-.643zm96.067-3.164c3.007-.103 6.182-.263 7.055-.357.874-.093 3.334-.233 5.468-.31 9.802-.355 34.79-1.84 39.773-2.363 4.215-.442 5.14-.964 5.925-3.345.547-1.657-.308-5.768-1.974-9.485-.695-1.553-1.35-3.1-1.456-3.44-.106-.34-.333-.617-.505-.617-.17 0-.311-.166-.311-.368 0-.203-.675-1.253-1.5-2.334-.824-1.081-1.737-2.314-2.028-2.74-.592-.865-3.111-4.005-3.792-4.725-.243-.257-.441-.59-.441-.74 0-.149-.527-.555-1.172-.902-.93-.501-1.325-.549-1.917-.232-.41.22-1.43.399-2.268.398-4.1 0-11.526 1.26-12.459 2.116-.388.356-1.433.754-2.322.885-.89.13-1.812.358-2.05.504-.699.433-.08 2.03 1.235 3.184 1.578 1.386 1.635 2.721.137 3.243-.661.23-1.142.692-1.276 1.226-.298 1.191-1.2 1.593-2.643 1.178-2.774-.795-2.85.231-.146 1.961 2.137 1.367 2.58 1.984 2.478 3.456-.15 2.185-2.563 3.12-4.603 1.783-.912-.598-.968-.596-1.436.043-.267.366-.486.823-.486 1.016 0 .193-.345.718-.767 1.167-1.26 1.342-2.559 1.061-6.083-1.317-2.692-1.817-3.435-3.036-4.865-7.982-.72-2.489-1.356-4.842-1.414-5.23-.089-.588-.422-.724-1.994-.814-1.27-.072-2.077.058-2.466.4-.319.28-1.576.867-2.795 1.306-1.218.439-2.3.934-2.402 1.1-.102.165-.449.3-.77.3-.687 0-5.886 2.55-7.081 3.473-.818.631-.83.733-.917 8.197-.05 4.156-.21 7.836-.358 8.178-.453 1.046-1.971 1.2-2.72.275l-.646-.797v.849c0 .467.278 1.2.618 1.63.68.862-.575.845 17.374.23zm-4.935-2.098c-1.026-1.235.531-3.42 3.524-4.943.873-.445 2.643-1.777 3.934-2.962 2.178-1.998 3.244-2.563 3.533-1.872.065.154 1.467 1.3 3.116 2.546 1.65 1.245 3.316 2.564 3.704 2.93a31.207 31.207 0 0 0 1.852 1.552c1.28.991 1.454 1.663.53 2.038-.876.356-12.31 1.212-16.361 1.225-2.586.008-3.5-.114-3.832-.514zM214.39-1.439c0-.268-.436-.572-.97-.674-1.139-.219-1.307-.117-1.025.618.262.682 1.995.731 1.995.056zm-370.665-1.287c.576-.672.961-.712 6.164-.628 6.962.113 7.716-.144 9.82-3.337 2.324-3.524 4.667-8.295 5.456-11.105.675-2.407.688-2.67.17-3.46-1.05-1.602-3.64-2.567-8.104-3.02-4.835-.49-4.798-.508-6.793 3.288-.693 1.32-1.4 2.398-1.57 2.398-.17 0-.308.24-.308.534 0 .294-.158.81-.352 1.147-.544.949-3.794 9.306-4.08 10.492-.14.581-.55 1.646-.91 2.366-1.02 2.037-.737 2.778.507 1.325zM21.862-3.958c1.503-.515 2.734-1.081 2.734-1.258 0-.427-1.139-.407-2.317.041-.524.2-1.606.444-2.405.544-2.148.268-5.634 1.212-6.038 1.635-.684.715 5.184.012 8.026-.962zm-216.165-.722c2.91-.114 9.181-.062 13.935.116 4.754.177 8.915.252 9.249.166.333-.086.708-.479.833-.873.25-.786 5.07-10.961 6.166-13.014.377-.705.685-1.539.685-1.852 0-.313.159-.57.353-.57.194 0 .353-.21.353-.469 0-.258.38-1.221.846-2.14.694-1.372.756-1.708.34-1.867-1.458-.56-12.025 1.466-16.356 3.136-1.067.411-4.217 1.834-7 3.161-2.784 1.327-5.115 2.413-5.18 2.413-.12 0-2.046 1.308-6.158 4.185-2.73 1.909-5.557 4.775-6.674 6.763l-.847 1.51 2.082-.229c1.145-.125 4.463-.321 7.373-.436zm-1.587-17.779c0-.188-.238-.25-.53-.139-.29.112-.529.266-.529.342 0 .076.238.139.53.139.29 0 .529-.154.529-.342zm3.533-1.714c-.235-.079-.69.125-1.01.452-.546.558-.519.567.427.143.556-.25.818-.517.583-.595zm113.871.506c1.532-.791 6.382-2.34 8.04-2.566 1.117-.153 1.807-.518 2.574-1.362.824-.905 1.439-1.206 2.869-1.402 1.652-.228 1.799-.32 1.59-1.007-.494-1.62-.634-5.507-.217-6.01.228-.275 1.688-1.013 3.244-1.64 1.556-.628 2.7-1.264 2.542-1.413-.391-.372-9.284.221-14.045.937-3.573.536-5.46 1.174-6.911 2.335-.648.518-.91 2.268-1.24 8.298-.255 4.663-.221 4.746 1.554 3.83zm-107.174-2.507c1.153-.485 2.378-.89 2.724-.898.345-.009 1.104-.242 1.686-.517l1.058-.502-1.41.203c-1.584.228-6.522 1.84-7.039 2.299-.67.594.922.282 2.981-.585zm47.802-4.763c-.12-.194-.377-.353-.571-.353-.194 0-.255.16-.135.353.12.194.377.353.57.353.195 0 .256-.159.136-.353zm99.856-1.749c.467-.466 6.163-1.414 10.275-1.71 1.874-.135 3.46-.41 3.527-.61.186-.562-4.043-2.881-6.414-3.518-2.81-.754-14.579-1.104-14.826-.44-.09.243.275 1.626.811 3.072.97 2.616.983 2.63 2.38 2.757.773.07 1.88.261 2.463.425 1.44.406 1.403.405 1.784.024zM-188.654 131.7c-.502-.811.443-1.092 4.26-1.266 2.117-.096 6.3-.32 9.295-.496 2.995-.177 5.575-.242 5.733-.144.737.456.146.842-1.213.794-1.916-.069-3.79.348-4.427.985-.38.38-.613.402-.987.092-.479-.397-3.335-.329-9.887.239-1.773.153-2.59.093-2.774-.204zm29.1-.535c0-.326-.331-.53-.861-.53-1.955 0-1.164-1.298 1.006-1.65l1.266-.206v1.458c0 1.222-.114 1.457-.706 1.457-.392 0-.705-.235-.705-.53zm-7.056-.697c0-.092.49-.42 1.09-.73 1.206-.624 2.085-.473 2.085.357 0 .405-.397.54-1.587.54-.873 0-1.588-.075-1.588-.167zm486.393-2.898c-.34-.089-.618-.293-.618-.455 0-.363 1.35-.038 1.614.388.2.324.03.335-.996.067zm-116.686-78.7c-.88-.88-1.528-1.99-1.908-3.264-2.139-7.18-1.407-14.916 1.761-18.607.96-1.118 1.282-1.266 2.812-1.289 2.354-.035 2.54.812.465 2.122-.828.523-1.78 1.285-2.117 1.694-.969 1.18-1.486 5.191-1.224 9.501.239 3.945.412 4.463 3.015 9.006 1.402 2.447-.598 3.043-2.804.837zm-6.155-24.398c-.112-.181-.036-1.078.169-1.994.205-.915.27-2.354.143-3.198-.208-1.384-.16-1.533.49-1.533.396 0 1.049.418 1.451.93.987 1.254 1.04 4.678.086 5.541-.704.637-2.015.78-2.34.254zM75.273-17.333c-.494-.494-1.414-1.653-2.044-2.577-.631-.923-1.329-1.837-1.552-2.03-.222-.195-.924-1.306-1.558-2.47-1.158-2.123-5.609-9.018-6.035-9.349-.125-.097-.85-1.077-1.61-2.179-.76-1.101-1.878-2.548-2.486-3.216a24.974 24.974 0 0 1-2.002-2.584c-.493-.753-1.7-2.523-2.68-3.933-2.306-3.316-2.298-3.61.099-3.61 1.035 0 1.985.104 2.112.23.127.127 1.988.674 4.135 1.215s4.888 1.454 6.09 2.029c1.202.574 2.583 1.148 3.068 1.275 1.392.364 3.527 1.331 3.527 1.598 0 .133.427.437.95.675 2.417 1.101 9.725 7.66 12.918 11.594 5.338 6.577 6.571 8.18 7.43 9.657.873 1.504.905 1.685.385 2.205-.7.7-.918.702-2.556.021-1.293-.537-2.435-1.63-4.963-4.746-.708-.874-1.459-1.747-1.669-1.94-.531-.492-2.97-3.93-2.97-4.187 0-.28-2.137-2.661-4.769-5.315-2.975-2.999-6.681-4.427-12.95-4.99-2.378-.214-2.756-.168-2.957.353-.148.388.097.94.699 1.567.51.532.927 1.133.927 1.335 0 .202.304.642.674.977.37.335 1.953 2.464 3.516 4.73 1.562 2.265 3.76 5.389 4.882 6.941 3.044 4.21 3.29 4.655 3.375 6.076.097 1.652-.716 1.918-1.986.648zm-2.85-24.145c-.436-.705-10.639-4.275-12.219-4.275-.401 0-1.037-.165-1.412-.366-1.04-.556-.846.15.461 1.676 2.145 2.504 2.273 2.568 5.172 2.596 1.474.015 3.395.154 4.268.309 2.238.398 3.956.426 3.73.06zm-50.153 4.49c-.606-.98 2.254-1.883 9.91-3.131 2.523-.411 5.301-.817 6.174-.903.873-.085 2.858-.31 4.41-.498 5.64-.688 11.13-1.1 11.8-.887.765.242 1.311 1.504.847 1.954-.165.16-3.396.466-7.18.68-3.783.215-7.99.546-9.348.737-1.358.19-4.136.58-6.173.864-2.038.284-4.895.759-6.35 1.054-3.175.643-3.762.662-4.09.13zM-5.701-40.94c-.363-.438-.307-.668.318-1.293 1.319-1.319 2.207-1.584 11.81-3.528.97-.197 3.273-.505 5.116-.685 1.843-.18 5.812-.657 8.82-1.06l6.702-.896c2.972-.398 15.91-1.231 19.005-1.224 2.755.006 3.557.13 4.245.66.492.378.766.87.651 1.169-.16.417-.934.5-4.024.428-2.104-.048-5.73.124-8.059.382-2.328.259-6.13.571-8.45.694-4.083.217-10.508.933-14.128 1.575-.97.172-4.7.718-8.29 1.213-6.759.932-8.789 1.371-10.031 2.17-1.232.792-3.182 1-3.685.395z" style="fill:#000;stroke-width:.35277778" transform="translate(304.43 81.665)"/></svg>