<svg xmlns="http://www.w3.org/2000/svg" xmlns:xlink="http://www.w3.org/1999/xlink" viewBox="0 0 335.81 397.6"><defs><linearGradient id="a"><stop style="stop-color:#dcdcdc" offset="0"/><stop style="stop-color:#6a6a6a" offset=".5"/><stop style="stop-color:#e4e4e4" offset="1"/></linearGradient><linearGradient id="b" y2="467.12" gradientUnits="userSpaceOnUse" x2="353.89" gradientTransform="translate(-557.66 15.868)" y1="427.12" x1="353.97"><stop style="stop-color:#000" offset="0"/><stop style="stop-color:#393939" offset=".5"/><stop style="stop-color:#000" offset="1"/></linearGradient><linearGradient id="c" y2="457.83" xlink:href="#a" gradientUnits="userSpaceOnUse" x2="477.88" y1="436.4" x1="478.38"/><linearGradient id="d" y2="462.36" gradientUnits="userSpaceOnUse" x2="485" y1="432.36" x1="485"><stop style="stop-color:#dcdcdc" offset="0"/><stop style="stop-color:#6a6a6a" offset=".5"/><stop style="stop-color:#e4e4e4" offset="1"/></linearGradient><radialGradient id="e" gradientUnits="userSpaceOnUse" cy="233.43" cx="472.5" r="109.48"><stop style="stop-color:#c9c9c9;stop-opacity:.12057" offset="0"/><stop style="stop-color:#dbe3e3;stop-opacity:.34118" offset=".25"/><stop style="stop-color:#edfdfe;stop-opacity:.086275" offset=".5"/><stop style="stop-color:#e4fcfd;stop-opacity:.12941" offset=".75"/><stop style="stop-color:#929292;stop-opacity:.56028" offset="1"/></radialGradient></defs><g transform="translate(-179.84 -121.04)"><rect style="stroke-linejoin:round;stroke:#000;stroke-linecap:round;fill:url(#b)" transform="rotate(-52.728)" rx="7.857" ry="7.857" height="40" width="175.71" y="442.98" x="-281.23"/><g style="fill:url(#c)" transform="rotate(-52.728 294.84 554.652)"><rect style="stroke-linejoin:round;stroke:#000;stroke-linecap:round;fill:url(#c)" rx="7.857" ry="0" height="26.429" width="7.857" y="433.9" x="452.86"/><rect style="stroke-linejoin:round;stroke:#000;stroke-linecap:round;fill:url(#d)" rx="2.806" ry="2.806" height="21.429" width="42.857" y="436.4" x="460.71"/><rect style="stroke-linejoin:round;stroke:#000;stroke-linecap:round;fill:url(#c)" rx="7.857" ry="0" height="26.429" width="7.857" y="433.9" x="503.25"/><rect style="stroke-linejoin:round;stroke:#000;stroke-linecap:round;fill:url(#c)" rx="7.857" ry="0" height="18.106" width="8.449" y="438.06" x="511.11"/></g><path style="stroke:#000;stroke-width:3.9574;fill:url(#e)" d="M580 233.43c0 59.371-48.129 107.5-107.5 107.5S365 292.801 365 233.43s48.129-107.5 107.5-107.5S580 174.059 580 233.43z" transform="matrix(.57341 -.75347 .75347 .57341 -39.826 451.87)"/><text style="font-size:40px;font-family:Manga Temple;letter-spacing:0;word-spacing:0;line-height:125%;fill:#000" xml:space="preserve" y="240.2" x="333.35">
      
    </text></g></svg>